<?xml version="1.0" encoding="UTF-8"?>
<svg width="14px" height="14px" viewBox="0 0 14 14" version="1.1" xmlns="http://www.w3.org/2000/svg" xmlns:xlink="http://www.w3.org/1999/xlink">
    <!-- Generator: Sketch 46.2 (44496) - http://www.bohemiancoding.com/sketch -->
    <title>ico-mood-3</title>
    <desc>Created with Sketch.</desc>
    <defs></defs>
    <g id="Page-1" stroke="none" stroke-width="1" fill="none" fill-rule="evenodd">
        <g id="mlk-sc" fill="#FF9494">
            <g id="ico-mood-3">
                <path d="M6.902,1.5 C3.923,1.5 1.5,3.924 1.5,6.9 C1.5,9.879 3.923,12.303 6.902,12.303 C9.881,12.303 12.304,9.879 12.304,6.9 C12.304,3.924 9.881,1.5 6.902,1.5 M6.902,13.803 C3.096,13.803 0,10.707 0,6.9 C0,3.098 3.096,0 6.902,0 C10.708,0 13.804,3.098 13.804,6.9 C13.804,10.707 10.708,13.803 6.902,13.803" id="Fill-1"></path>
                <polygon id="Fill-2" points="7.7774 5.2731 9.2774 5.2731 9.2774 3.2831 7.7774 3.2831"></polygon>
                <polygon id="Fill-3" points="4.5204 5.2731 6.0204 5.2731 6.0204 3.2831 4.5204 3.2831"></polygon>
                <path d="M8.5738,10.0879 C7.9368,10.0879 7.2948,9.8539 6.6498,9.3869 C5.6858,8.6899 4.6488,8.7769 3.8048,9.6229 L2.7448,8.5629 C4.1008,7.2049 5.9778,7.0529 7.5268,8.1719 C8.2608,8.6989 8.9618,8.8459 9.9988,7.8069 L11.0588,8.8669 C10.2458,9.6799 9.4158,10.0879 8.5738,10.0879" id="Fill-4"></path>
            </g>
        </g>
    </g>
</svg>