<?xml version="1.0" encoding="UTF-8"?>
<svg width="315px" height="199px" viewBox="0 0 315 199" version="1.1" xmlns="http://www.w3.org/2000/svg" xmlns:xlink="http://www.w3.org/1999/xlink" x="0px" y="0px"
	 style="enable-background:new 0 0 600 290;" xml:space="preserve">
    <!-- Generator: Sketch 46.2 (44496) - http://www.bohemiancoding.com/sketch -->
    <title>bicycle-blue</title>
    <desc>Created with Sketch.</desc>
    <defs></defs>
    <g id="Page-1" stroke="none" stroke-width="1" fill="none" fill-rule="evenodd">
        <g id="bicycle-blue" fill-rule="nonzero" fill="#0F059E">
            <path d="M255.849826,81.7841811 C251.829094,81.7841811 247.91777,82.1943546 244.143206,82.9600118 L232.409233,45.3881211 C231.698084,42.188768 231.944251,39.755072 233.093031,38.1690679 C234.570035,36.1455454 237.578746,35.4072332 238.727526,35.2705087 C248.218641,35.1064393 255.877178,27.3404881 255.877178,17.8244634 C255.877178,14.6251103 253.278746,12 250.05122,12 C246.851045,12 244.225261,14.5977654 244.225261,17.8244634 C244.225261,21.0238165 241.626829,23.6489268 238.399303,23.6489268 L237.989024,23.6489268 C237.059059,23.7036166 228.744077,24.4692737 223.766028,31.1961188 C221.605226,34.094678 219.471777,39.1808292 220.866725,46.8920906 L114.057491,46.8920906 L109.407666,37.5674802 L127.924913,35.2431638 C131.125087,35.2431638 133.750871,32.6453984 133.750871,29.4187004 C133.750871,26.2193473 131.152439,23.594237 127.924913,23.594237 L84.052439,18.1252573 C83.2045296,17.933843 82.3292683,17.7971185 81.3993031,17.7971185 C74.9716028,17.7971185 69.7747387,22.9926492 69.7747387,29.4187004 C69.7747387,35.8447515 74.9716028,41.0402823 81.3993031,41.0402823 C82.3019164,41.0402823 83.2045296,40.9035578 84.052439,40.7121435 L97.1813589,39.0714496 L103.855226,52.4157601 L82.9036585,87.3351955 C75.3818815,83.7803587 67.0121951,81.7294913 58.1501742,81.7294913 C26.0937282,81.7294913 0,107.816525 0,139.864746 C0,171.912967 26.0937282,198 58.1501742,198 C85.8303136,198 108.997387,178.557777 114.850697,152.634813 C125.408537,155.396648 151.639024,162.314907 152.733101,162.588356 C154.100697,162.94384 155.550348,163.135254 157.027352,163.135254 C166.655226,163.135254 174.477875,155.314613 174.477875,145.689209 C174.477875,142.298442 173.493206,139.153778 171.824739,136.501323 L227.130314,67.3734196 L233.065679,86.405469 C212.305575,95.292561 197.699652,115.910615 197.699652,139.864746 C197.699652,171.912967 223.79338,198 255.849826,198 C287.906272,198 314,171.912967 314,139.864746 C314,107.871214 287.933624,81.7841811 255.849826,81.7841811 Z M58.1501742,186.433108 C32.4940767,186.433108 11.6245645,165.56895 11.6245645,139.919435 C11.6245645,114.269921 32.4940767,93.405763 58.1501742,93.405763 C64.8240418,93.405763 71.1423345,94.8550426 76.8862369,97.3707733 L53.1447735,136.911497 L53.1721254,136.911497 C52.652439,137.786533 52.324216,138.798295 52.324216,139.892091 C52.324216,143.091444 54.9226481,145.716554 58.1501742,145.716554 C60.2562718,145.716554 62.0888502,144.568068 63.128223,142.872685 L63.1555749,142.872685 L86.8696864,103.359306 C97.7010453,111.890914 104.675784,125.071156 104.675784,139.892091 C104.675784,165.56895 83.8062718,186.433108 58.1501742,186.433108 Z M115.124216,128.297854 C112.224913,114.078506 104.074042,101.773302 92.8597561,93.405763 L110.03676,64.8029991 L141.792334,128.297854 L115.124216,128.297854 Z M157,157.365481 C150.5723,157.365481 145.375436,152.16995 145.375436,145.743899 C145.375436,139.317848 150.5723,134.122317 157,134.122317 C163.4277,134.122317 168.624564,139.317848 168.624564,145.743899 C168.624564,152.142605 163.4277,157.365481 157,157.365481 Z M162.743902,129.254925 C160.938676,128.625992 159.024042,128.270509 157.027352,128.270509 L157.027352,128.270509 L154.811847,128.270509 L119.910801,58.5136724 L219.362369,58.5136724 L162.743902,129.254925 Z M255.849826,186.433108 C230.193728,186.433108 209.324216,165.56895 209.324216,139.919435 C209.324216,121.160835 220.51115,105 236.539373,97.6442223 L250.297387,141.642164 C250.324739,141.696854 250.352091,141.724199 250.352091,141.778889 C250.543554,142.325787 250.789721,142.817995 251.090592,143.282858 C251.145296,143.337548 251.172648,143.392238 251.227352,143.446927 C251.528223,143.857101 251.91115,144.212585 252.321429,144.513378 C252.376132,144.568068 252.430836,144.595413 252.48554,144.650103 C252.923171,144.950897 253.388153,145.197001 253.90784,145.36107 C254.017247,145.388415 254.099303,145.41576 254.208711,145.47045 C254.728397,145.607174 255.248084,145.716554 255.822474,145.716554 C255.822474,145.716554 255.822474,145.716554 255.849826,145.716554 C255.849826,145.716554 255.849826,145.716554 255.849826,145.716554 C256.396864,145.716554 256.916551,145.607174 257.408885,145.47045 C257.463589,145.443105 257.518293,145.47045 257.572997,145.443105 C257.655052,145.41576 257.709756,145.388415 257.791812,145.333725 C258.010627,145.251691 258.202091,145.169656 258.393554,145.060276 C258.530314,144.978242 258.694425,144.896207 258.831185,144.814172 C258.995296,144.704793 259.18676,144.595413 259.350871,144.458689 C259.487631,144.349309 259.62439,144.239929 259.76115,144.13055 C259.897909,143.993825 260.034669,143.857101 260.171429,143.693031 C260.280836,143.556307 260.390244,143.446927 260.499652,143.310203 C260.609059,143.146133 260.718467,142.982064 260.827875,142.79065 C260.90993,142.653925 260.991986,142.517201 261.074042,142.353131 C261.156098,142.161717 261.238153,141.970303 261.320209,141.778889 C261.374913,141.614819 261.429617,141.45075 261.484321,141.28668 C261.539024,141.095266 261.566376,140.903852 261.593728,140.712438 C261.62108,140.521023 261.648432,140.329609 261.648432,140.138195 C261.648432,140.028815 261.675784,139.94678 261.675784,139.864746 C261.675784,139.755366 261.648432,139.673331 261.648432,139.563952 C261.648432,139.372537 261.62108,139.208468 261.593728,139.017054 C261.566376,138.798295 261.511672,138.579535 261.456969,138.388121 C261.429617,138.306086 261.429617,138.224052 261.402265,138.142017 L247.644251,94.1440753 C250.324739,93.679212 253.05993,93.3784181 255.849826,93.3784181 C281.505923,93.3784181 302.375436,114.242576 302.375436,139.892091 C302.375436,165.56895 281.505923,186.433108 255.849826,186.433108 Z" id="Shape"></path>
            <path d="M156,140 C152.704225,140 150,142.676056 150,146 C150,149.323944 152.676056,152 156,152 C159.295775,152 162,149.323944 162,146 C162,142.676056 159.323944,140 156,140 Z" id="Shape"></path>
            <path d="M214.842476,12 L238.157524,12 C241.366771,12 244,9.32394366 244,6 C244,2.67605634 241.394201,0 238.157524,0 L214.842476,0 C211.633229,0 209,2.67605634 209,6 C209,9.32394366 211.633229,12 214.842476,12 Z" id="Shape"></path>
            <path d="M239,43.934953 C239,44.1818182 239.026834,44.4561129 239.107335,44.6755486 C239.134168,44.8401254 248.31127,73.8056426 248.445438,74.1073668 C248.847943,75.2045455 249.894454,76 251.101968,76 C251.880143,76 266.880143,76 266.880143,76 L266.880143,76 C269.134168,76 271.06619,74.6833856 272.005367,72.7358934 C272.273703,72.1598746 283.382826,49.6951411 283.70483,48.6528213 C283.892665,48.0768025 284,47.4733542 284,46.8424765 C284,43.6332288 281.450805,41 278.284436,41 L278.284436,41 C278.284436,41 242.649374,41 241.844365,41 C240.261181,41.0274295 239,42.3166144 239,43.934953 Z" id="Shape"></path>
        </g>
    </g>
</svg>