<?xml version="1.0" encoding="UTF-8"?>
<svg width="315px" height="251px" viewBox="0 0 315 251" version="1.1" xmlns="http://www.w3.org/2000/svg" xmlns:xlink="http://www.w3.org/1999/xlink">
    <!-- Generator: Sketch 46.2 (44496) - http://www.bohemiancoding.com/sketch -->
    <title>bicycle-blue</title>
    <desc>Created with Sketch.</desc>
    <defs></defs>
    <g id="Page-1" stroke="none" stroke-width="1" fill="none" fill-rule="evenodd">
        <g id="bicycle-blue" fill-rule="nonzero" fill="#0F059E">
            <path d="M255.849826,133.784181 C251.829094,133.784181 247.91777,134.194355 244.143206,134.960012 L232.409233,97.3881211 C231.698084,94.188768 231.944251,91.755072 233.093031,90.1690679 C234.570035,88.1455454 237.578746,87.4072332 238.727526,87.2705087 C248.218641,87.1064393 255.877178,79.3404881 255.877178,69.8244634 C255.877178,66.6251103 253.278746,64 250.05122,64 C246.851045,64 244.225261,66.5977654 244.225261,69.8244634 C244.225261,73.0238165 241.626829,75.6489268 238.399303,75.6489268 L237.989024,75.6489268 C237.059059,75.7036166 228.744077,76.4692737 223.766028,83.1961188 C221.605226,86.094678 219.471777,91.1808292 220.866725,98.8920906 L114.057491,98.8920906 L109.407666,89.5674802 L127.924913,87.2431638 C131.125087,87.2431638 133.750871,84.6453984 133.750871,81.4187004 C133.750871,78.2193473 131.152439,75.594237 127.924913,75.594237 L84.052439,70.1252573 C83.2045296,69.933843 82.3292683,69.7971185 81.3993031,69.7971185 C74.9716028,69.7971185 69.7747387,74.9926492 69.7747387,81.4187004 C69.7747387,87.8447515 74.9716028,93.0402823 81.3993031,93.0402823 C82.3019164,93.0402823 83.2045296,92.9035578 84.052439,92.7121435 L97.1813589,91.0714496 L103.855226,104.41576 L82.9036585,139.335196 C75.3818815,135.780359 67.0121951,133.729491 58.1501742,133.729491 C26.0937282,133.729491 0,159.816525 0,191.864746 C0,223.912967 26.0937282,250 58.1501742,250 C85.8303136,250 108.997387,230.557777 114.850697,204.634813 C125.408537,207.396648 151.639024,214.314907 152.733101,214.588356 C154.100697,214.94384 155.550348,215.135254 157.027352,215.135254 C166.655226,215.135254 174.477875,207.314613 174.477875,197.689209 C174.477875,194.298442 173.493206,191.153778 171.824739,188.501323 L227.130314,119.37342 L233.065679,138.405469 C212.305575,147.292561 197.699652,167.910615 197.699652,191.864746 C197.699652,223.912967 223.79338,250 255.849826,250 C287.906272,250 314,223.912967 314,191.864746 C314,159.871214 287.933624,133.784181 255.849826,133.784181 Z M58.1501742,238.433108 C32.4940767,238.433108 11.6245645,217.56895 11.6245645,191.919435 C11.6245645,166.269921 32.4940767,145.405763 58.1501742,145.405763 C64.8240418,145.405763 71.1423345,146.855043 76.8862369,149.370773 L53.1447735,188.911497 L53.1721254,188.911497 C52.652439,189.786533 52.324216,190.798295 52.324216,191.892091 C52.324216,195.091444 54.9226481,197.716554 58.1501742,197.716554 C60.2562718,197.716554 62.0888502,196.568068 63.128223,194.872685 L63.1555749,194.872685 L86.8696864,155.359306 C97.7010453,163.890914 104.675784,177.071156 104.675784,191.892091 C104.675784,217.56895 83.8062718,238.433108 58.1501742,238.433108 Z M115.124216,180.297854 C112.224913,166.078506 104.074042,153.773302 92.8597561,145.405763 L110.03676,116.802999 L141.792334,180.297854 L115.124216,180.297854 Z M157,209.365481 C150.5723,209.365481 145.375436,204.16995 145.375436,197.743899 C145.375436,191.317848 150.5723,186.122317 157,186.122317 C163.4277,186.122317 168.624564,191.317848 168.624564,197.743899 C168.624564,204.142605 163.4277,209.365481 157,209.365481 Z M162.743902,181.254925 C160.938676,180.625992 159.024042,180.270509 157.027352,180.270509 L157.027352,180.270509 L154.811847,180.270509 L119.910801,110.513672 L219.362369,110.513672 L162.743902,181.254925 Z M255.849826,238.433108 C230.193728,238.433108 209.324216,217.56895 209.324216,191.919435 C209.324216,173.160835 220.51115,157 236.539373,149.644222 L250.297387,193.642164 C250.324739,193.696854 250.352091,193.724199 250.352091,193.778889 C250.543554,194.325787 250.789721,194.817995 251.090592,195.282858 C251.145296,195.337548 251.172648,195.392238 251.227352,195.446927 C251.528223,195.857101 251.91115,196.212585 252.321429,196.513378 C252.376132,196.568068 252.430836,196.595413 252.48554,196.650103 C252.923171,196.950897 253.388153,197.197001 253.90784,197.36107 C254.017247,197.388415 254.099303,197.41576 254.208711,197.47045 C254.728397,197.607174 255.248084,197.716554 255.822474,197.716554 C255.822474,197.716554 255.822474,197.716554 255.849826,197.716554 C255.849826,197.716554 255.849826,197.716554 255.849826,197.716554 C256.396864,197.716554 256.916551,197.607174 257.408885,197.47045 C257.463589,197.443105 257.518293,197.47045 257.572997,197.443105 C257.655052,197.41576 257.709756,197.388415 257.791812,197.333725 C258.010627,197.251691 258.202091,197.169656 258.393554,197.060276 C258.530314,196.978242 258.694425,196.896207 258.831185,196.814172 C258.995296,196.704793 259.18676,196.595413 259.350871,196.458689 C259.487631,196.349309 259.62439,196.239929 259.76115,196.13055 C259.897909,195.993825 260.034669,195.857101 260.171429,195.693031 C260.280836,195.556307 260.390244,195.446927 260.499652,195.310203 C260.609059,195.146133 260.718467,194.982064 260.827875,194.79065 C260.90993,194.653925 260.991986,194.517201 261.074042,194.353131 C261.156098,194.161717 261.238153,193.970303 261.320209,193.778889 C261.374913,193.614819 261.429617,193.45075 261.484321,193.28668 C261.539024,193.095266 261.566376,192.903852 261.593728,192.712438 C261.62108,192.521023 261.648432,192.329609 261.648432,192.138195 C261.648432,192.028815 261.675784,191.94678 261.675784,191.864746 C261.675784,191.755366 261.648432,191.673331 261.648432,191.563952 C261.648432,191.372537 261.62108,191.208468 261.593728,191.017054 C261.566376,190.798295 261.511672,190.579535 261.456969,190.388121 C261.429617,190.306086 261.429617,190.224052 261.402265,190.142017 L247.644251,146.144075 C250.324739,145.679212 253.05993,145.378418 255.849826,145.378418 C281.505923,145.378418 302.375436,166.242576 302.375436,191.892091 C302.375436,217.56895 281.505923,238.433108 255.849826,238.433108 Z" id="Shape"></path>
            <path d="M156,192 C152.704225,192 150,194.676056 150,198 C150,201.323944 152.676056,204 156,204 C159.295775,204 162,201.323944 162,198 C162,194.676056 159.323944,192 156,192 Z" id="Shape"></path>
            <path d="M214.842476,64 L238.157524,64 C241.366771,64 244,61.3239437 244,58 C244,54.6760563 241.394201,52 238.157524,52 L214.842476,52 C211.633229,52 209,54.6760563 209,58 C209,61.3239437 211.633229,64 214.842476,64 Z" id="Shape"></path>
            <path d="M239,95.934953 C239,96.1818182 239.026834,96.4561129 239.107335,96.6755486 C239.134168,96.8401254 248.31127,125.805643 248.445438,126.107367 C248.847943,127.204545 249.894454,128 251.101968,128 C251.880143,128 266.880143,128 266.880143,128 L266.880143,128 C269.134168,128 271.06619,126.683386 272.005367,124.735893 C272.273703,124.159875 283.382826,101.695141 283.70483,100.652821 C283.892665,100.076803 284,99.4733542 284,98.8424765 C284,95.6332288 281.450805,93 278.284436,93 L278.284436,93 C278.284436,93 242.649374,93 241.844365,93 C240.261181,93.0274295 239,94.3166144 239,95.934953 Z" id="Shape"></path>
        </g>
    </g>
</svg>