<?xml version="1.0" encoding="utf-8"?>
<!-- Generator: Adobe Illustrator 21.1.0, SVG Export Plug-In . SVG Version: 6.00 Build 0)  -->
<svg version="1.1" id="Layer_1" xmlns="http://www.w3.org/2000/svg" xmlns:xlink="http://www.w3.org/1999/xlink" x="0px" y="0px"
	 viewBox="0 0 600 290" style="enable-background:new 0 0 600 290;" xml:space="preserve">
<g fill="#0F059E">
	<path d="M223.6,243c-1.3,0-2.5,0.1-3.8,0.4V243h-60.3v0.4c-1.2-0.2-2.5-0.4-3.8-0.4c-10.4,0-18.9,8.4-18.9,18.9
		c0,10.4,8.5,18.9,18.9,18.9c6.2,0,11.6-3,15.1-7.5h37.8c3.4,4.6,8.9,7.5,15.1,7.5c10.4,0,18.9-8.4,18.9-18.9
		C242.5,251.4,234.1,243,223.6,243z"/>
	<path d="M450,243c-1.3,0-2.6,0.1-3.8,0.4V243h-60.4v0.4c-1.2-0.2-2.5-0.4-3.8-0.4c-10.4,0-18.9,8.4-18.9,18.9
		c0,10.4,8.4,18.9,18.9,18.9c6.2,0,11.6-3,15.1-7.5h37.8c3.4,4.6,8.9,7.5,15.1,7.5c10.4,0,18.9-8.4,18.9-18.9
		C468.8,251.4,460.4,243,450,243z"/>
	<path d="M574.5,250.5v7.5h-12.1l9-22.6H582v-12.2h-7.5v-40.6l-15.1-67.9V99.6l-75.5-7.5h-22.6v-7.5h-15.1v-6l60.4-24.1v-7.5
		l-75.4-30.2v7.5l66,26.4l-66,26.4h-30.2l-66-26.4l66-26.4h30.2v-7.5h-30.2l-75.4,30.2v7.5l60.4,24.1v6h-15.1v7.5h-60.4v-7.5H250
		v7.5h-30.2v-7.5h-60.3v7.5h-37.7l-75.4,7.5v15.1l-15.1,67.9v40.6h-7.5v12.2h10.6l12.1,30.2h75.4l12.1-30.2h111.7l12.1,30.2h90.5
		l12.1-30.2h111.7l12.1,30.2h75.5h15.1h7.5v-7.5v-7.5H574.5z M67.6,227.9H40.1v-4.6h27.5V227.9z M69,175.1c0,4.2-3.4,7.5-7.6,7.5
		H38.8l15.1-67.9h7.5c4.2,0,7.6,3.4,7.6,7.5V175.1z M114.2,227.9c0,4.2-3.4,7.5-7.5,7.5H91.6c-4.2,0-7.6-3.4-7.6-7.5v-30.2
		c0-4.2,3.4-7.5,7.6-7.5h15.1c4.2,0,7.5,3.4,7.5,7.5V227.9z M114.2,175.1c0,4.2-3.4,7.5-7.5,7.5H91.6c-4.2,0-7.6-3.4-7.6-7.5v-30.2
		c0-4.2,3.4-7.5,7.6-7.5h15.1c4.2,0,7.5,3.4,7.5,7.5V175.1z M129.3,122.3c0-4.2,3.4-7.5,7.5-7.5h50.7v18.4h-58.3V122.3z M250,175.1
		c0,4.2-3.4,7.5-7.5,7.5h-52.8h-52.8c-4.2,0-7.5-3.4-7.5-7.5v-35.2H250V175.1z M250,133.1h-55.6v-18.4h48.1c4.2,0,7.5,3.4,7.5,7.5
		V133.1z M295.3,227.9c0,4.2-3.4,7.5-7.6,7.5h-15.1c-4.2,0-7.5-3.4-7.5-7.5v-30.2c0-4.2,3.4-7.5,7.5-7.5h15.1c4.2,0,7.6,3.4,7.6,7.5
		V227.9z M295.3,175.1c0,4.2-3.4,7.5-7.6,7.5h-15.1c-4.2,0-7.5-3.4-7.5-7.5v-30.2c0-4.2,3.4-7.5,7.5-7.5h15.1c4.2,0,7.6,3.4,7.6,7.5
		V175.1z M340.6,227.9c0,4.2-3.4,7.5-7.5,7.5h-15.1c-4.2,0-7.5-3.4-7.5-7.5v-30.2c0-4.2,3.4-7.5,7.5-7.5H333c4.2,0,7.5,3.4,7.5,7.5
		V227.9z M340.6,175.1c0,4.2-3.4,7.5-7.5,7.5h-15.1c-4.2,0-7.5-3.4-7.5-7.5v-30.2c0-4.2,3.4-7.5,7.5-7.5H333c4.2,0,7.5,3.4,7.5,7.5
		V175.1z M355.7,122.3c0-4.2,3.4-7.5,7.6-7.5h50.4v18.4h-58V122.3z M476.4,175.1c0,4.2-3.4,7.5-7.5,7.5H416h-52.8
		c-4.2,0-7.6-3.4-7.6-7.5v-35.2h120.7V175.1z M476.4,133.1h-55.9v-18.4h48.4c4.2,0,7.5,3.4,7.5,7.5V133.1z M536.7,122.3
		c0-4.2,3.4-7.5,7.5-7.5h7.5l15.1,67.9h-22.6c-4.2,0-7.5-3.4-7.5-7.5V122.3z M521.6,227.9c0,4.2-3.4,7.5-7.5,7.5H499
		c-4.2,0-7.5-3.4-7.5-7.5v-30.2c0-4.2,3.4-7.5,7.5-7.5h15.1c4.2,0,7.5,3.4,7.5,7.5V227.9z M521.6,175.1c0,4.2-3.4,7.5-7.5,7.5H499
		c-4.2,0-7.5-3.4-7.5-7.5v-30.2c0-4.2,3.4-7.5,7.5-7.5h15.1c4.2,0,7.5,3.4,7.5,7.5V175.1z M536.7,227.9v-4.6h27.5v4.6H536.7z"/>
</g>
</svg>
