<?xml version="1.0" encoding="utf-8"?>
<!-- Generator: Adobe Illustrator 21.1.0, SVG Export Plug-In . SVG Version: 6.00 Build 0)  -->
<svg version="1.1" id="Layer_1" xmlns="http://www.w3.org/2000/svg" xmlns:xlink="http://www.w3.org/1999/xlink" x="0px" y="0px"
	 viewBox="0 0 600 290" style="enable-background:new 0 0 600 290;" xml:space="preserve">
<g fill="#0F059E">
	<g>
		<path d="M465.2,228.1c-7.2,0-13.1,5.9-13.1,13.1c0,7.2,5.9,13.1,13.1,13.1c7.2,0,13.1-5.9,13.1-13.1
			C478.3,234,472.4,228.1,465.2,228.1z"/>
		<path d="M166.2,228.1c-7.3,0-13.1,5.9-13.1,13.1c0,7.2,5.9,13.1,13.1,13.1c7.2,0,13.1-5.9,13.1-13.1
			C179.3,234,173.4,228.1,166.2,228.1z"/>
		<path d="M559.6,170.4l-7.9-7.9L418,154.7l-48.5-55.1H180.6l-45.9,55.1L56.1,163l-7.9,23.2v23.6h-7.9v15.7l7.9,7.9l70.8,15.7h8.7
			c3.6,18,19.5,31.5,38.6,31.5s34.9-13.5,38.6-31.5h221.9c3.6,18,19.5,31.5,38.6,31.5c19,0,34.9-13.5,38.5-31.5h40.1l7.9-7.9v-7.9
			l-7.9-7.9L559.6,170.4z M68.7,208.2h-9v-18.1h9V208.2z M166.2,263.1c-12.1,0-21.9-9.8-21.9-21.9c0-12.1,9.8-21.9,21.9-21.9
			c12.1,0,21.8,9.8,21.8,21.9C188.1,253.3,178.3,263.1,166.2,263.1z M197.7,186.2h-15.7v-7.9h15.7V186.2z M267.2,162.6h-85.2v-15.7
			l22.3-31.5h62.9V162.6z M307.8,186.2h-15.7v-7.9h15.7V186.2z M378.6,162.6h-87.9l-6.6-47.2H355l23.6,31.5V162.6z M465.2,263.1
			c-12.1,0-21.9-9.8-21.9-21.9c0-12.1,9.8-21.9,21.9-21.9c12.1,0,21.8,9.8,21.8,21.9C487,253.3,477.3,263.1,465.2,263.1z"/>
	</g>
</g>
</svg>
