<?xml version="1.0" encoding="UTF-8"?>
<svg width="14px" height="14px" viewBox="0 0 14 14" version="1.1" xmlns="http://www.w3.org/2000/svg" xmlns:xlink="http://www.w3.org/1999/xlink">
    <!-- Generator: Sketch 46.2 (44496) - http://www.bohemiancoding.com/sketch -->
    <title>ico-mood-2</title>
    <desc>Created with Sketch.</desc>
    <defs></defs>
    <g id="Page-1" stroke="none" stroke-width="1" fill="none" fill-rule="evenodd">
        <g id="mlk-sc" fill="#9E96FF">
            <g id="ico-mood-2">
                <path d="M6.902,1.5 C3.923,1.5 1.5,3.924 1.5,6.9 C1.5,9.879 3.923,12.303 6.902,12.303 C9.881,12.303 12.304,9.879 12.304,6.9 C12.304,3.924 9.881,1.5 6.902,1.5 M6.902,13.803 C3.096,13.803 0,10.707 0,6.9 C0,3.098 3.096,0 6.902,0 C10.708,0 13.804,3.098 13.804,6.9 C13.804,10.707 10.708,13.803 6.902,13.803" id="Fill-1"></path>
                <polygon id="Fill-2" points="7.7767 5.2736 9.2767 5.2736 9.2767 3.2836 7.7767 3.2836"></polygon>
                <polygon id="Fill-3" points="4.5197 5.2736 6.0197 5.2736 6.0197 3.2836 4.5197 3.2836"></polygon>
                <polygon id="Fill-4" points="3.1897 9.0036 10.4267 9.0036 10.4267 7.5036 3.1897 7.5036"></polygon>
            </g>
        </g>
    </g>
</svg>